<svg xmlns="http://www.w3.org/2000/svg" viewBox="-10 -10 124 124">
  <defs><linearGradient id="f" x1="0" y1="0" x2="0" y2="1"><stop offset="0" stop-color="#FF5A5F"/><stop offset=".55" stop-color="#FF9A3C"/><stop offset="1" stop-color="#FFDD3B"/></linearGradient></defs>
  <g fill="#fff" stroke="#fff" stroke-width="14" stroke-linejoin="round"><path d="M46 5 56 3 64 33 95 33 97 42 72 60 82 88 74 95 50 76 25 95 17 89 28 59 3 43 5 34 37 33Z"/><path transform="translate(4 6)" d="M46 5 56 3 64 33 95 33 97 42 72 60 82 88 74 95 50 76 25 95 17 89 28 59 3 43 5 34 37 33Z"/></g>
  <path transform="translate(4 6)" d="M46 5 56 3 64 33 95 33 97 42 72 60 82 88 74 95 50 76 25 95 17 89 28 59 3 43 5 34 37 33Z" fill="#B5213B"/>
  <path d="M46 5 56 3 64 33 95 33 97 42 72 60 82 88 74 95 50 76 25 95 17 89 28 59 3 43 5 34 37 33Z" fill="url(#f)"/>
</svg>
